<?xml version="1.0" standalone="no"?>
<!DOCTYPE svg PUBLIC "-//W3C//DTD SVG 20010904//EN"
 "http://www.w3.org/TR/2001/REC-SVG-20010904/DTD/svg10.dtd">
<svg version="1.0" xmlns="http://www.w3.org/2000/svg"
 width="512.000000pt" height="512.000000pt" viewBox="0 0 512.000000 512.000000"
 preserveAspectRatio="xMidYMid meet">
<metadata>
Created by potrace 1.14, written by Peter Selinger 2001-2017
</metadata>
<g transform="translate(0.000000,512.000000) scale(0.100000,-0.100000)"
fill="#000000" stroke="none">
<path d="M1260 4704 c-200 -25 -446 -111 -604 -212 -69 -44 -204 -151 -221
-174 -21 -31 -19 -60 6 -92 34 -43 71 -36 153 33 255 210 552 310 886 298 350
-14 658 -145 959 -408 69 -61 100 -82 121 -82 21 0 52 21 121 82 222 195 478
329 739 386 118 26 357 31 481 11 321 -53 606 -219 794 -461 101 -131 149
-220 201 -370 181 -523 13 -1147 -473 -1750 -48 -60 -159 -182 -245 -270
l-157 -160 -1 206 c0 193 -1 208 -21 233 -27 34 -79 36 -109 4 -19 -21 -20
-34 -20 -297 l0 -276 -108 -86 c-299 -238 -637 -463 -1023 -678 -98 -54 -157
-81 -179 -81 -51 0 -447 228 -768 442 -130 87 -363 258 -481 354 l-60 49 2
1025 c2 1022 2 1025 23 1071 96 207 386 211 488 7 16 -31 26 -69 26 -94 0 -57
30 -94 76 -94 47 0 70 26 78 90 10 72 27 110 73 160 98 110 260 120 372 23 52
-44 80 -97 92 -176 12 -75 30 -97 79 -97 49 0 67 22 79 97 11 72 31 115 75
161 54 58 100 77 191 77 92 0 136 -18 197 -82 44 -45 64 -90 74 -163 8 -63 31
-90 77 -90 48 0 69 28 78 101 9 74 47 140 107 186 131 100 323 52 405 -101 22
-41 22 -45 27 -678 5 -588 6 -639 22 -655 26 -26 86 -22 109 6 18 22 19 52 19
640 0 681 0 685 -63 790 -42 69 -106 126 -187 165 -60 29 -73 31 -170 31 -137
-1 -195 -23 -286 -107 l-65 -61 -33 39 c-154 178 -463 176 -623 -4 l-33 -37
-32 37 c-126 141 -341 178 -517 89 -24 -13 -66 -45 -94 -73 l-50 -50 -51 50
c-97 93 -187 127 -320 120 -167 -9 -303 -109 -370 -272 -21 -50 -21 -65 -26
-1021 l-5 -970 -94 90 c-581 559 -894 1215 -842 1764 19 202 80 395 173 551
53 87 57 112 25 144 -61 61 -110 25 -194 -140 -65 -127 -107 -245 -135 -386
-29 -147 -31 -410 -4 -563 158 -878 921 -1720 2242 -2471 185 -105 231 -124
294 -124 64 0 108 19 305 130 391 221 791 494 1100 751 138 114 475 453 572
574 312 390 489 751 559 1140 24 137 24 414 0 545 -105 572 -525 1001 -1107
1132 -90 20 -130 23 -299 23 -162 -1 -212 -5 -296 -23 -269 -58 -538 -191
-753 -370 -40 -34 -77 -62 -81 -62 -4 0 -41 28 -81 62 -213 178 -486 313 -747
368 -95 21 -383 35 -472 24z"/>
<path d="M2135 3141 c-54 -24 -120 -101 -142 -164 -11 -33 -17 -79 -17 -124 2
-181 146 -318 295 -283 74 18 128 64 169 144 32 63 35 77 34 150 0 94 -28 168
-85 225 -68 69 -171 90 -254 52z m147 -158 c69 -75 56 -217 -24 -259 -28 -15
-34 -15 -63 -1 -54 26 -85 113 -66 185 26 96 100 132 153 75z"/>
<path d="M2805 3141 c-55 -25 -103 -75 -133 -141 -22 -45 -26 -70 -27 -135 0
-71 4 -88 33 -147 39 -80 87 -123 160 -144 108 -32 211 21 271 138 29 57 34
78 35 140 0 46 -6 92 -17 125 -22 63 -88 140 -142 164 -51 24 -129 24 -180 0z
m149 -161 c67 -80 48 -226 -33 -260 -79 -32 -154 91 -121 196 29 92 104 123
154 64z"/>
<path d="M1565 2842 c-176 -83 -195 -361 -36 -505 168 -150 395 -37 395 198 1
125 -57 237 -150 291 -60 36 -152 43 -209 16z m134 -146 c78 -41 106 -192 46
-252 -47 -47 -116 -21 -156 59 -16 31 -20 53 -17 99 7 93 57 130 127 94z"/>
<path d="M3389 2846 c-119 -42 -212 -201 -196 -335 26 -223 239 -316 398 -174
127 115 147 328 40 446 -63 70 -155 94 -242 63z m131 -161 c34 -36 40 -127 11
-182 -50 -98 -141 -112 -177 -28 -19 47 -17 92 6 145 39 86 112 116 160 65z"/>
<path d="M2450 2439 c-73 -14 -162 -66 -249 -145 -44 -40 -95 -81 -112 -90
-17 -9 -73 -22 -124 -29 -115 -16 -193 -54 -265 -131 -59 -62 -115 -173 -131
-259 -30 -163 33 -358 155 -480 123 -123 252 -139 576 -75 211 43 311 43 525
-1 125 -26 186 -33 276 -34 113 0 116 1 191 38 111 55 183 142 235 285 69 189
16 413 -127 545 -75 70 -134 97 -246 112 -50 7 -106 20 -123 29 -17 9 -68 50
-114 92 -90 82 -172 128 -256 144 -63 12 -148 11 -211 -1z m256 -172 c27 -15
87 -60 134 -102 109 -97 161 -123 275 -136 162 -18 252 -103 286 -267 29 -141
-45 -322 -159 -389 -72 -43 -158 -42 -382 2 -252 49 -348 49 -600 0 -326 -64
-411 -40 -506 143 -87 168 -32 388 120 477 29 17 68 27 131 34 115 13 170 41
276 137 127 114 176 135 300 130 57 -3 88 -10 125 -29z"/>
</g>
</svg>
